<svg xmlns="http://www.w3.org/2000/svg" width="89" height="89" viewBox="0 0 89 89">
  <g id="Grupo_1098766" data-name="Grupo 1098766" transform="translate(-1251.582 -413.653)">
    <g id="Grupo_1098742" data-name="Grupo 1098742" transform="translate(48.262 24.911)">
      <g id="Rect치ngulo_400898" data-name="Rect치ngulo 400898" transform="translate(1203.32 388.742)" fill="#fff" stroke="#fff" stroke-width="3" opacity="0.859">
        <rect width="89" height="89" rx="44.5" stroke="none"/>
        <rect x="1.5" y="1.5" width="86" height="86" rx="43" fill="none"/>
      </g>
      <rect id="Rect치ngulo_400907" data-name="Rect치ngulo 400907" width="89" height="89" rx="44.5" transform="translate(1203.32 388.742)" fill="#1d3fbb"/>
    </g>
    <g id="Grupo_1100873" data-name="Grupo 1100873" transform="translate(-65 -141.282)">
      <g id="crema-batida" transform="translate(1329.582 566.936)">
        <g id="Grupo_1100867" data-name="Grupo 1100867" transform="translate(11.037 0)">
          <g id="Grupo_1100856" data-name="Grupo 1100856" transform="translate(0 27.575)">
            <path id="Trazado_876037" data-name="Trazado 876037" d="M128.226,241.694a7.166,7.166,0,0,0-6.183-9.883,4.266,4.266,0,0,0-3.55-4.173,17.342,17.342,0,0,1-9.879-2.863c-1.478-1.189-1.205-3.643-1.706-5.062a1.672,1.672,0,0,0-2.841-.556q-.038.045-.073.094c-2.145,2.962-4.86,4.979-4.607,8.416a7.143,7.143,0,0,0,2.027,4.482,7.165,7.165,0,0,0-4.129,10.132,6.65,6.65,0,0,0-3.568,5.894h0a6.652,6.652,0,0,0,6.652,6.652h26.359a6.652,6.652,0,0,0,6.652-6.652h0a6.653,6.653,0,0,0-5.154-6.481Z" transform="translate(-93.718 -218.581)" fill="#e5effb"/>
          </g>
          <g id="Grupo_1100858" data-name="Grupo 1100858" transform="translate(0 36.634)">
            <g id="Grupo_1100857" data-name="Grupo 1100857">
              <path id="Trazado_876038" data-name="Trazado 876038" d="M128.226,304.437a7.166,7.166,0,0,0-6.183-9.883,4.266,4.266,0,0,0-3.55-4.173c-.271.012-.548.012-.827.005-.164.183-.331.364-.5.54-.5.509-.94,1.088-1.482,1.55,0,.049-.006.1-.005.139,2.979.182,4.262,1.835,4.262,4.86a3.913,3.913,0,0,1-.137,1.805,5.861,5.861,0,0,1,5.412,5.541,5.282,5.282,0,0,1-5.282,5.282H99a5.276,5.276,0,0,1-4.441-2.424,6.615,6.615,0,0,0-.841,3.237h0a6.652,6.652,0,0,0,6.652,6.652h26.359a6.652,6.652,0,0,0,6.652-6.652h0A6.653,6.653,0,0,0,128.226,304.437Z" transform="translate(-93.718 -290.382)" fill="#eab7f8"/>
            </g>
          </g>
          <path id="Trazado_876039" data-name="Trazado 876039" d="M144.465,243.358a1.3,1.3,0,0,0-1.715.661c-1.112,2.507-3.644,4.732-7.454,6.594a7.7,7.7,0,0,1-5.174-6.1,17.706,17.706,0,0,0,8.832-9.345,1.3,1.3,0,1,0-2.4-1,15.629,15.629,0,0,1-2.875,4.569c-2.035-.71-3.342-1.967-3.595-3.463a23.924,23.924,0,0,0,4.481-3.73,1.3,1.3,0,0,0-1.884-1.791,19.771,19.771,0,0,1-6.32,4.54c-2.479-.773-4.091-1.911-4.909-3.463-.992-1.882-.848-4.475.44-7.929a.78.78,0,1,0-1.461-.545c-1.453,3.894-1.57,6.9-.359,9.2a8.066,8.066,0,0,0,3.9,3.486,7.911,7.911,0,0,1-6.128-1.118,1.3,1.3,0,0,0-1.445,2.161,10.335,10.335,0,0,0,2.211,1.124,6.834,6.834,0,0,0-.37,4.541,6.969,6.969,0,0,0,1.338,2.538,30.666,30.666,0,0,1-6.326-.424,1.3,1.3,0,0,0-.52,2.547,30.049,30.049,0,0,0,4.626.479,7.882,7.882,0,0,0,1.644,8.313c-3.291.5-5.576.653-5.614.655a1.3,1.3,0,0,0,.084,2.6l.086,0c1.078-.07,26.455-1.854,31.564-13.373a1.3,1.3,0,0,0-.661-1.715Zm-24.333-5.73a10.6,10.6,0,0,0,2.048.2,12.572,12.572,0,0,0,3.6-.549,16.4,16.4,0,0,0,2.9-1.189,6.3,6.3,0,0,0,3.78,3.838,18.4,18.4,0,0,1-9.439,4.044c-.472.073-.938.132-1.4.178A5.255,5.255,0,0,1,120.132,237.628Zm.821,17.253a6.483,6.483,0,0,1-1.923-7.981,31.835,31.835,0,0,0,4.305-.349,24.688,24.688,0,0,0,5.322-1.4,9.371,9.371,0,0,0,4.707,6.33,50.389,50.389,0,0,1-6.758,2.2C124.634,254.182,122.7,254.576,120.953,254.881Z" transform="translate(-109.43 -193.857)" fill="#b69acc"/>
          <g id="Grupo_1100859" data-name="Grupo 1100859" transform="translate(17.733 10.232)">
            <path id="Trazado_876040" data-name="Trazado 876040" d="M237.138,94.995l-2.12-1.775a2.048,2.048,0,0,1-.461-2.589l5.461-9.525,8.286,6.779L239.762,95A2.047,2.047,0,0,1,237.138,94.995Z" transform="translate(-234.285 -81.105)" fill="#d3b5f2"/>
          </g>
          <g id="Grupo_1100860" data-name="Grupo 1100860" transform="translate(22.774 0)">
            <path id="Trazado_876041" data-name="Trazado 876041" d="M303.124,7.282A30.881,30.881,0,0,1,291.1,14.19a4.943,4.943,0,0,0-1.8,1.031l-1,.89a5.113,5.113,0,0,1-6.691.108l-5.536-4.636A5.113,5.113,0,0,1,275,4.985l1.36-2.211A9.316,9.316,0,0,0,277.1,0h26.02Z" transform="translate(-274.242 0)" fill="#fff2a5"/>
          </g>
          <g id="Grupo_1100861" data-name="Grupo 1100861" transform="translate(22.775 0)">
            <path id="Trazado_876042" data-name="Trazado 876042" d="M295.952,0V5.472a23.209,23.209,0,0,1-9.035,5.191,3.715,3.715,0,0,0-1.356.775l-.748.669a3.842,3.842,0,0,1-5.028.081l-4.16-3.484a3.831,3.831,0,0,1-1.272-2.064,5.114,5.114,0,0,0,1.727,4.943l5.536,4.636a5.113,5.113,0,0,0,6.691-.108l1-.89a4.943,4.943,0,0,1,1.8-1.031A30.883,30.883,0,0,0,303.13,7.282V0Z" transform="translate(-274.25)" fill="#ffb7a9"/>
          </g>
          <g id="Grupo_1100862" data-name="Grupo 1100862" transform="translate(18.938 18.748)">
            <path id="Trazado_876043" data-name="Trazado 876043" d="M244.611,153.647a.78.78,0,0,1-.595-1.283l2.944-3.481a.78.78,0,1,1,1.191,1.007l-2.944,3.481A.779.779,0,0,1,244.611,153.647Z" transform="translate(-243.831 -148.607)" fill="#b172e7"/>
          </g>
          <g id="Grupo_1100863" data-name="Grupo 1100863" transform="translate(38.604 6.448)">
            <path id="Trazado_876044" data-name="Trazado 876044" d="M400.5,54.637a.78.78,0,0,1-.78-.78V51.888a.78.78,0,1,1,1.56,0v1.969A.78.78,0,0,1,400.5,54.637Z" transform="translate(-399.722 -51.108)" fill="#e78472"/>
          </g>
          <g id="Grupo_1100864" data-name="Grupo 1100864" transform="translate(42.921 2.383)">
            <path id="Trazado_876045" data-name="Trazado 876045" d="M434.716,22.417a.78.78,0,0,1-.78-.78V19.668a.78.78,0,0,1,1.56,0v1.969A.78.78,0,0,1,434.716,22.417Z" transform="translate(-433.936 -18.888)" fill="#e78472"/>
          </g>
          <g id="Grupo_1100865" data-name="Grupo 1100865" transform="translate(26.891 6.446)">
            <path id="Trazado_876046" data-name="Trazado 876046" d="M308.176,54.34a1.3,1.3,0,0,1-.855-2.279,5.537,5.537,0,0,0,.523-.522,1.3,1.3,0,1,1,1.956,1.712,8.151,8.151,0,0,1-.769.768A1.3,1.3,0,0,1,308.176,54.34Z" transform="translate(-306.876 -51.096)" fill="#fff"/>
          </g>
          <g id="Grupo_1100866" data-name="Grupo 1100866" transform="translate(29.699 1.863)">
            <path id="Trazado_876047" data-name="Trazado 876047" d="M330.436,18.186a1.3,1.3,0,0,1-1.279-1.54,3.422,3.422,0,0,0,.068-.594,1.3,1.3,0,0,1,1.3-1.286h.014a1.3,1.3,0,0,1,1.286,1.313,5.913,5.913,0,0,1-.113,1.046A1.3,1.3,0,0,1,330.436,18.186Z" transform="translate(-329.135 -14.767)" fill="#fff"/>
          </g>
        </g>
        <g id="Grupo_1100872" data-name="Grupo 1100872" transform="translate(0 2.683)">
          <g id="Grupo_1100868" data-name="Grupo 1100868" transform="translate(0.327 7.07)">
            <path id="Trazado_876048" data-name="Trazado 876048" d="M13.09,77.626l-1.068,3a.482.482,0,0,1-.25.282l-2.667,1.2a.532.532,0,0,0,0,.94l2.667,1.2a.482.482,0,0,1,.25.282l1.068,3a.433.433,0,0,0,.835,0l1.068-3a.481.481,0,0,1,.25-.282l2.667-1.2a.532.532,0,0,0,0-.94l-2.667-1.2a.482.482,0,0,1-.25-.282l-1.068-3A.433.433,0,0,0,13.09,77.626Z" transform="translate(-8.823 -77.308)" fill="#d3b5f2"/>
          </g>
          <g id="Grupo_1100869" data-name="Grupo 1100869" transform="translate(18.156)">
            <path id="Trazado_876049" data-name="Trazado 876049" d="M153.311,21.5l-.792,2.227a.358.358,0,0,1-.186.209l-1.978.891a.4.4,0,0,0,0,.7l1.978.891a.357.357,0,0,1,.186.209l.792,2.227a.321.321,0,0,0,.619,0l.792-2.227a.357.357,0,0,1,.186-.209l1.978-.891a.4.4,0,0,0,0-.7l-1.978-.891a.358.358,0,0,1-.186-.209l-.792-2.227A.321.321,0,0,0,153.311,21.5Z" transform="translate(-150.146 -21.264)" fill="#d3b5f2"/>
          </g>
          <g id="Grupo_1100870" data-name="Grupo 1100870" transform="translate(0 32.383)">
            <circle id="Elipse_11571" data-name="Elipse 11571" cx="2.331" cy="2.331" r="2.331" transform="matrix(0.987, -0.16, 0.16, 0.987, 0, 0.746)" fill="#ad84e6"/>
          </g>
          <g id="Grupo_1100871" data-name="Grupo 1100871" transform="translate(15.188 16.611)">
            <circle id="Elipse_11572" data-name="Elipse 11572" cx="1.006" cy="1.006" r="1.006" fill="#ad84e6"/>
          </g>
        </g>
      </g>
    </g>
  </g>
</svg>
