<svg xmlns="http://www.w3.org/2000/svg" width="89" height="89" viewBox="0 0 89 89">
  <g id="Grupo_1100623" data-name="Grupo 1100623" transform="translate(-1251.583 -413.337)">
    <g id="Grupo_1098742" data-name="Grupo 1098742" transform="translate(48.263 24.595)">
      <g id="Rectángulo_400898" data-name="Rectángulo 400898" transform="translate(1203.32 388.742)" fill="#fff" stroke="#fff" stroke-width="3" opacity="0.859">
        <rect width="89" height="89" rx="44.5" stroke="none"/>
        <rect x="1.5" y="1.5" width="86" height="86" rx="43" fill="none"/>
      </g>
      <rect id="Rectángulo_400907" data-name="Rectángulo 400907" width="89" height="89" rx="44.5" transform="translate(1203.32 388.742)" fill="#1d3fbb"/>
    </g>
    <g id="mezclar" transform="translate(1263.833 426.249)">
      <path id="Trazado_876077" data-name="Trazado 876077" d="M6,29A24.009,24.009,0,0,0,24,52.243H40A24.01,24.01,0,0,0,58,29Z" fill="#f1f6ff"/>
      <path id="Trazado_876078" data-name="Trazado 876078" d="M58,29H8A24.009,24.009,0,0,0,26,52.243H40A24.01,24.01,0,0,0,58,29Z" fill="#e6f0ff"/>
      <path id="Trazado_876079" data-name="Trazado 876079" d="M58,29H6c0,.674.031,1.34.085,2H57.915C57.969,30.34,58,29.674,58,29Z" fill="#e6f0ff"/>
      <path id="Trazado_876080" data-name="Trazado 876080" d="M58,29H8c0,.674.031,1.34.085,2H57.915C57.969,30.34,58,29.674,58,29Z" fill="#d7e4f7"/>
      <path id="Trazado_876081" data-name="Trazado 876081" d="M32,37.12c-6.9-4.069-17.513-4.169-24.594-.231l-.064.036A24.05,24.05,0,0,0,24,52.244H40A24.042,24.042,0,0,0,56.468,37.415C49.387,41.284,38.855,41.166,32,37.12Z" fill="#f5dfb7"/>
      <path id="Trazado_876082" data-name="Trazado 876082" d="M56.467,37.415C49.387,41.284,38.855,41.166,32,37.12,25.628,33.359,16.081,33,9.08,36.07A24.032,24.032,0,0,0,26,52.244H40A24.042,24.042,0,0,0,56.468,37.415Z" fill="#f1d29a"/>
      <path id="Trazado_876083" data-name="Trazado 876083" d="M24,52.244V56a1,1,0,0,0,1,1H39a1,1,0,0,0,1-1V52.244Z" fill="#f1f6ff"/>
      <path id="Trazado_876084" data-name="Trazado 876084" d="M40,56V52.244H26V56a1,1,0,0,0,1,1H39A1,1,0,0,0,40,56Z" fill="#e6f0ff"/>
      <rect id="Rectángulo_402071" data-name="Rectángulo 402071" width="56" height="4" rx="2" transform="translate(4 25)" fill="#f1f6ff"/>
      <path id="Trazado_876085" data-name="Trazado 876085" d="M60,27H8a2,2,0,0,0-2,2H58A2,2,0,0,0,60,27Z" fill="#e6f0ff"/>
      <path id="Trazado_876086" data-name="Trazado 876086" d="M17.31,32.481,22.243,41.2a3.6,3.6,0,0,0,5.737.413l12.1-12.1-9.9-9.9Z" fill="#ffe675"/>
      <path id="Trazado_876087" data-name="Trazado 876087" d="M31.6,21.021,18.332,34.287l3.91,6.91a3.6,3.6,0,0,0,5.738.413l12.1-12.1Z" fill="#fcd841"/>
      <path id="Trazado_876088" data-name="Trazado 876088" d="M26.424,16.9H54.791a2,2,0,0,1,0,4H26.424a1.633,1.633,0,0,1-1.633-1.633v-.734A1.633,1.633,0,0,1,26.424,16.9Z" transform="translate(-1.417 34.379) rotate(-45)" fill="#fff0aa"/>
      <path id="Trazado_876089" data-name="Trazado 876089" d="M50.69,9,30.632,29.059a1.633,1.633,0,0,0-.357,1.772,1.633,1.633,0,0,0,1.772-.358L52.1,10.414a1.991,1.991,0,0,0,.511-1.925A1.992,1.992,0,0,0,50.69,9Z" fill="#ffe675"/>
    </g>
  </g>
</svg>
