<svg xmlns="http://www.w3.org/2000/svg" width="104.731" height="104.73" viewBox="0 0 104.731 104.73">
  <g id="Grupo_1100843" data-name="Grupo 1100843" transform="translate(-327.763 -6421)">
    <g id="Grupo_1100612" data-name="Grupo 1100612" transform="translate(327.763 6421.422)">
      <circle id="Elipse_11494" data-name="Elipse 11494" cx="52.365" cy="52.365" r="52.365" transform="translate(0 -0.422)" fill="#f7c3ec"/>
      <g id="Elipse_11502" data-name="Elipse 11502" transform="translate(10.76 10.76)" fill="none" stroke="#fff" stroke-width="4">
        <ellipse cx="41.515" cy="41.515" rx="41.515" ry="41.515" stroke="none"/>
        <ellipse cx="41.515" cy="41.515" rx="39.515" ry="39.515" fill="none"/>
      </g>
    </g>
    <g id="manzana" transform="translate(327.519 6442.999)">
      <path id="Trazado_876015" data-name="Trazado 876015" d="M77.124,144.993c0,7.265-4.724,17.3-10.436,22.79-2.533,2.436-5.262,3.973-7.859,3.973a16.532,16.532,0,0,1-4.688-.689,10.194,10.194,0,0,0-5.913,0,16.53,16.53,0,0,1-4.688.689c-2.721,0-5.588-1.688-8.223-4.33-5.547-5.555-10.072-15.324-10.072-22.433,0-10.489,6.274-16.826,12.174-18.355a18.186,18.186,0,0,1,8.754.428,19.846,19.846,0,0,0,8.359.358q.839-.144,1.665-.358a18.185,18.185,0,0,1,8.754-.428C70.85,128.168,77.124,134.5,77.124,144.993Z" transform="translate(0 -111.378)" fill="#f94848"/>
      <path id="Trazado_876016" data-name="Trazado 876016" d="M66.688,167.782a40.124,40.124,0,0,1-16.477-.09,16.434,16.434,0,0,1-12.409-14c-2.063-16.994,9.041-21.941,9.041-21.941a12.42,12.42,0,0,0,6.914.689c-2.335-2.334.775-5.019.775-5.019a19.846,19.846,0,0,1-8.359-.358,18.186,18.186,0,0,0-8.754-.428c-5.9,1.53-12.174,7.867-12.174,18.355s9.846,26.762,18.3,26.762a16.532,16.532,0,0,0,4.688-.689,10.194,10.194,0,0,1,5.913,0,16.531,16.531,0,0,0,4.688.689c2.6,0,5.326-1.537,7.859-3.973Z" transform="translate(-0.001 -111.378)" fill="#e23d3d"/>
      <path id="Trazado_876017" data-name="Trazado 876017" d="M292.065.65s-1.457,10.155-9.129,13.111c-7.335,2.826-13.873-4.815-16.555-4.213a1.074,1.074,0,0,0-.338.131l-.006,0V9.676c.09-.274,3.032-9.035,10.585-9.609C284.3-.515,288.471,2.981,292.065.65Z" transform="translate(-212.398 0)" fill="#c7f492"/>
      <path id="Trazado_876018" data-name="Trazado 876018" d="M292.064.65S287.4,6.331,280.847,6.331c-5.764,0-12.843,2.59-14.467,3.217-.2.074-.31.121-.338.131l-.006,0V9.676c.09-.274,3.032-9.035,10.585-9.609C284.295-.515,288.47,2.981,292.064.65Z" transform="translate(-212.397 0)" fill="#a3e261"/>
      <ellipse id="Elipse_11560" data-name="Elipse 11560" cx="5.243" cy="3.393" rx="5.243" ry="3.393" transform="translate(65.857 34.735) rotate(-95.676)" fill="#fc8181"/>
      <path id="Trazado_876019" data-name="Trazado 876019" d="M210.032,166.437c0,1.193-1.873,2.187-4.36,2.412-.347.032-.705.048-1.072.048-.383,0-.756-.017-1.116-.051-2.463-.235-4.315-1.224-4.315-2.41Z" transform="translate(-153.415 -146.81)" fill="#e23d3d"/>
      <path id="Trazado_876020" data-name="Trazado 876020" d="M216.7,68.35,212.719,74.4a33.251,33.251,0,0,1,.724,4.022c.092.779.157,1.585.188,2.412-.347.032-.705.048-1.072.048-.383,0-.756-.017-1.116-.051-.032-.827-.1-1.632-.2-2.41a31.837,31.837,0,0,0-2.922-9.87,1.093,1.093,0,0,1,1.93-1.025,28.841,28.841,0,0,1,1.677,4.1l2.953-4.484a1.092,1.092,0,0,1,1.824,1.2Z" transform="translate(-161.374 -58.796)" fill="#b25719"/>
    </g>
  </g>
</svg>
