<svg xmlns="http://www.w3.org/2000/svg" width="104.731" height="104.73" viewBox="0 0 104.731 104.73">
  <g id="Grupo_1100851" data-name="Grupo 1100851" transform="translate(-1166.763 -6433)">
    <g id="Grupo_1100610" data-name="Grupo 1100610" transform="translate(1166.763 6433)">
      <circle id="Elipse_11494" data-name="Elipse 11494" cx="52.365" cy="52.365" r="52.365" fill="#f7c3ec"/>
      <g id="Elipse_11502" data-name="Elipse 11502" transform="translate(10.76 10.76)" fill="none" stroke="#fff" stroke-width="4">
        <ellipse cx="41.515" cy="41.515" rx="41.515" ry="41.515" stroke="none"/>
        <ellipse cx="41.515" cy="41.515" rx="39.515" ry="39.515" fill="none"/>
      </g>
    </g>
    <g id="pure-de-patatas" transform="translate(1177.247 6444)">
      <path id="Trazado_876033" data-name="Trazado 876033" d="M81.65,23.3,95.231,7.138a6.23,6.23,0,0,1,8.411-.914,5.435,5.435,0,0,1,.961,7.938L90.779,30.606" transform="translate(-25.585)" fill="#d3710f"/>
      <path id="Trazado_876034" data-name="Trazado 876034" d="M11.006,47.977c-4.135-4.859.947-10.766,7.464-10.523.6-5.15,8.337-7.6,13.243-5.129-.758-4.277,3.471-7.694,8.689-7.728,3.749,0,6.936,1.807,8.2,4.344C49.868,26.4,53.056,24.6,56.8,24.6c5-.183,10.692,4.087,8.2,9.176a11.2,11.2,0,0,1,6.821.677c3.8,1.617,5.671,5.82,3.228,9.088a6.269,6.269,0,0,1,2.795,4.432" transform="translate(-2.262 -6.334)" fill="#eec07b"/>
      <path id="Trazado_876035" data-name="Trazado 876035" d="M79.526,60.267q-2.538,7.745-5.055,15.49C70.58,87.646,58.231,95.841,44.189,95.841h-5.84c-13.845,0-26.073-7.965-30.133-19.624Q5.455,68.269,2.695,60.328C1.9,58.048,3.838,55.74,6.538,55.74H75.669c2.68,0,4.608,2.267,3.864,4.527Z" transform="translate(0 -16.405)" fill="#d3710f"/>
      <path id="Trazado_876036" data-name="Trazado 876036" d="M67.742,99.893a1.7,1.7,0,1,1-.135-3.39A24.5,24.5,0,0,0,85.424,86.67a1.863,1.863,0,0,1,2.49-.467,1.643,1.643,0,0,1,.494,2.355A27.81,27.81,0,0,1,67.742,99.893Z" transform="translate(-20.514 -26.161)" fill="#fff"/>
    </g>
  </g>
</svg>
