<svg xmlns="http://www.w3.org/2000/svg" width="89" height="89" viewBox="0 0 89 89">
  <g id="Grupo_1099499" data-name="Grupo 1099499" transform="translate(-1251.583 -413.337)">
    <g id="Grupo_1098742" data-name="Grupo 1098742" transform="translate(48.263 24.595)">
      <g id="Rect치ngulo_400898" data-name="Rect치ngulo 400898" transform="translate(1203.32 388.742)" fill="#fff" stroke="#fff" stroke-width="3" opacity="0.859">
        <rect width="89" height="89" rx="44.5" stroke="none"/>
        <rect x="1.5" y="1.5" width="86" height="86" rx="43" fill="none"/>
      </g>
      <rect id="Rect치ngulo_400907" data-name="Rect치ngulo 400907" width="89" height="89" rx="44.5" transform="translate(1203.32 388.742)" fill="#1d3fbb"/>
    </g>
    <g id="_23-mix" data-name="23-mix" transform="translate(1263.583 425.65)">
      <path id="Trazado_876050" data-name="Trazado 876050" d="M33,39.8C49,43.84,55,44,55,44a25.047,25.047,0,0,1-8.87,11.55A24.274,24.274,0,0,1,32,60C19.91,60,10,51,7,39a99.128,99.128,0,0,1,11-1h3a55.545,55.545,0,0,1,12,1.8Z" fill="#ffd28a"/>
      <ellipse id="Elipse_11573" data-name="Elipse 11573" cx="31" cy="3" rx="31" ry="3" transform="translate(1 22)" fill="#da684e"/>
      <path id="Trazado_876051" data-name="Trazado 876051" d="M63,25v3l-2,4c-3,1-13.52,2-29,2S6,33,3,32L1,28V25c0,1.66,13.88,3,31,3S63,26.66,63,25Z" fill="#da684e"/>
      <path id="Trazado_876052" data-name="Trazado 876052" d="M32,63C4,63,3,32,3,32c3,1,13.52,2,29,2s26-1,29-2C61,32,60,63,32,63ZM7,39c3,12,12.91,21,25,21a24.274,24.274,0,0,0,14.13-4.45A25.047,25.047,0,0,0,55,44s-6-.16-22-4.2A55.545,55.545,0,0,0,21,38H18A99.129,99.129,0,0,0,7,39Z" fill="#ede9e1"/>
      <path id="Trazado_876053" data-name="Trazado 876053" d="M32,28c-.34,0-.67,0-1.01-.01C14.34,27.95,1,26.63,1,25v3l.145.291c1.475,1.493,14.2,2.661,29.845,2.7.34.01.67.01,1.01.01,16.129,0,29.377-1.19,30.858-2.715L63,28V25c0,1.66-13.88,3-31,3Z" fill="#f58569"/>
      <path id="Trazado_876054" data-name="Trazado 876054" d="M3.88,26.264C8.807,27.29,19.542,28,32,28s23.193-.71,28.12-1.736C56.951,24.961,45.564,24,32,24s-24.951.961-28.12,2.264Z" fill="#a34235"/>
      <path id="Trazado_876055" data-name="Trazado 876055" d="M41.44,22.74l-2.09,2.08-1.39-1.39-.7-.69-.69-.7-1.39-1.39,2.08-2.09Z" fill="#918778"/>
      <path id="Trazado_876056" data-name="Trazado 876056" d="M58.14,1.86a2.97,2.97,0,0,1,0,4.18l-16.7,16.7-4.18-4.18,16.7-16.7a2.963,2.963,0,0,1,4.18,0Z" fill="#da684e"/>
      <g id="Grupo_1100874" data-name="Grupo 1100874">
        <path id="Trazado_876057" data-name="Trazado 876057" d="M36.8,22.482c-.117.062-11.811,6.273-15.879,10.352-4.02,4.008-3.967,6.549-3.426,8.32.1.118.2.226.3.338L36.842,22.451a.368.368,0,0,1-.042.031Z" fill="none"/>
        <path id="Trazado_876058" data-name="Trazado 876058" d="M27.873,39.783c-2.924,2.931-5.218,3.836-6.989,3.953a9.1,9.1,0,0,0,3.41.764,6.808,6.808,0,0,0,4.962-1.942c4.325-4.327,9.575-17.783,9.628-17.918A.477.477,0,0,1,39,24.467l-.67-.667c-.73,1.366-6.458,12-10.457,15.983Z" fill="none"/>
        <path id="Trazado_876059" data-name="Trazado 876059" d="M35.36,21.116c-.135.053-13.592,5.3-17.917,9.627A6.834,6.834,0,0,0,15.5,35.706a9.1,9.1,0,0,0,.757,3.393c.123-1.761,1.035-4.055,3.96-6.973,3.988-4,14.617-9.727,15.983-10.456L35.533,21a.5.5,0,0,1-.173.116Z" fill="none"/>
        <path id="Trazado_876060" data-name="Trazado 876060" d="M37.518,23.2c.007-.015.021-.023.03-.037L18.508,42.2c.112.1.22.206.338.3,1.8.54,4.337.57,8.319-3.425C31.246,35.006,37.456,23.313,37.518,23.2Z" fill="none"/>
      </g>
      <path id="Trazado_876061" data-name="Trazado 876061" d="M39.35,24.82,39,24.467a.477.477,0,0,0-.113.173c-.053.135-5.3,13.591-9.628,17.918A6.808,6.808,0,0,1,24.294,44.5a9.1,9.1,0,0,1-3.41-.764c1.771-.117,4.065-1.022,6.989-3.953C31.872,35.8,37.6,25.166,38.33,23.8l-.37-.37-.7-.69-.69-.7-.37-.37c-1.366.729-12,6.458-15.983,10.456-2.925,2.918-3.837,5.212-3.96,6.973a9.1,9.1,0,0,1-.757-3.393,6.834,6.834,0,0,1,1.943-4.963c4.325-4.323,17.782-9.574,17.917-9.627A.5.5,0,0,0,35.533,21l-.353-.353.351-.353A.5.5,0,0,0,35,20.185c-.562.216-13.789,5.378-18.262,9.85a7.846,7.846,0,0,0-2.237,5.7,10.086,10.086,0,0,0,2.1,5.9v.006a.478.478,0,0,0,.26.3c.183.216.365.433.562.629s.41.374.624.556a.528.528,0,0,0,.294.262l.024.008a10.085,10.085,0,0,0,5.9,2.1h.208a7.849,7.849,0,0,0,5.488-2.238C34.437,38.79,39.6,25.562,39.815,25a.5.5,0,0,0-.112-.532ZM17.8,41.492c-.1-.112-.207-.22-.3-.338-.541-1.771-.594-4.312,3.426-8.32,4.068-4.079,15.762-10.29,15.879-10.352a.368.368,0,0,0,.038-.031ZM18.846,42.5c-.118-.1-.226-.2-.338-.3l19.04-19.04c-.009.014-.023.022-.03.037-.062.117-6.272,11.81-10.353,15.88-3.982,3.994-6.518,3.964-8.319,3.423Z" fill="#ded9d0"/>
      <path id="Trazado_876062" data-name="Trazado 876062" d="M56,30c0-.034-.009-.066-.01-.1A221.836,221.836,0,0,1,32,31c-.34,0-.67,0-1.01-.01A216.653,216.653,0,0,1,8.01,29.9c0,.033-.01.064-.01.1a3.972,3.972,0,0,0,1.474,3.078C14.649,33.612,22.362,34,32,34s17.351-.388,22.526-.922A3.972,3.972,0,0,0,56,30Z" fill="#bd4c3d"/>
      <path id="Trazado_876063" data-name="Trazado 876063" d="M8.01,29.9a216.649,216.649,0,0,0,22.98,1.09c.34.01.67.01,1.01.01a221.838,221.838,0,0,0,23.99-1.1,3.973,3.973,0,0,0-1.314-2.854C49.017,27.633,40.954,28,32,28c-.34,0-.67,0-1.01-.01-8.55-.021-16.221-.379-21.667-.943A3.971,3.971,0,0,0,8.01,29.9Z" fill="#da684e"/>
      <path id="Trazado_876064" data-name="Trazado 876064" d="M32,60a23.785,23.785,0,0,0,16.391-6.29A24.883,24.883,0,0,1,36,57,22,22,0,0,1,14.236,38.214C9.826,38.536,7,39,7,39,10,51,19.91,60,32,60Z" fill="#ffbb4a"/>
      <path id="Trazado_876065" data-name="Trazado 876065" d="M48.391,53.71A23.785,23.785,0,0,1,32,60C19.91,60,10,51,7,39c0,0,2.826-.464,7.236-.786A22.126,22.126,0,0,1,14,35V33.457C8.426,33.075,4.615,32.538,3,32c0,0,1,31,29,31,18.888,0,25.483-14.1,27.78-23.281A25.063,25.063,0,0,1,48.391,53.71Z" fill="#ded9d0"/>
      <path id="Trazado_876066" data-name="Trazado 876066" d="M36.415,19.409,35.18,20.65l1.39,1.39.69.7.7.69,1.39,1.39,2.09-2.08-2.523-2.523a2.987,2.987,0,0,1-2.5-.808Z" fill="#544f43"/>
      <path id="Trazado_876067" data-name="Trazado 876067" d="M58.14,1.86a3.009,3.009,0,0,0-.47-.38,1.993,1.993,0,0,1-.584,1.434L40.621,19.379a2.971,2.971,0,0,1-1.7.838L41.44,22.74l16.7-16.7a2.97,2.97,0,0,0,0-4.18Z" fill="#bd4c3d"/>
      <path id="Trazado_876068" data-name="Trazado 876068" d="M53.7,20.992a9.993,9.993,0,0,1-5.257-1.971,1,1,0,0,1,1.116-1.661c2.534,1.7,4.5,1.956,5.138,1.33a1.938,1.938,0,0,0,.256-1.536,1,1,0,1,1,1.977-.308,3.6,3.6,0,0,1-.815,3.255,3.318,3.318,0,0,1-2.415.891Z" fill="#65adaf"/>
      <path id="Trazado_876069" data-name="Trazado 876069" d="M56.7,16a8.9,8.9,0,0,1-4.19-1.321,1,1,0,1,1,.978-1.744c2.191,1.229,3.692,1.263,4.208.751.5-.506.389-1.768-.3-3.286a1,1,0,1,1,1.823-.826c1.084,2.4,1.046,4.358-.109,5.527a3.31,3.31,0,0,1-2.41.9Z" fill="#79cfd1"/>
      <path id="Trazado_876070" data-name="Trazado 876070" d="M29.256,42.558A6.808,6.808,0,0,1,24.294,44.5a9.1,9.1,0,0,1-3.41-.764c1.771-.117,4.065-1.022,6.989-3.953.275-.274.56-.586.849-.918-.391-.072-.777-.141-1.158-.2-.135.145-.268.284-.4.414-3.982,3.995-6.518,3.965-8.319,3.425-.118-.1-.226-.2-.338-.3l4.119-4.119q-.689-.046-1.346-.068L17.8,41.5c-.1-.112-.207-.22-.3-.338a5.386,5.386,0,0,1-.048-3.129q-.523.023-1.029.05a6.83,6.83,0,0,0-.165,1.024,9.009,9.009,0,0,1-.358-1c-.352.021-.694.043-1.03.065a10.127,10.127,0,0,0,1.73,3.47v.006a.478.478,0,0,0,.26.3c.183.216.365.433.562.629s.41.374.624.556a.528.528,0,0,0,.294.262l.024.008a10.085,10.085,0,0,0,5.9,2.1h.208a7.849,7.849,0,0,0,5.488-2.238,21.315,21.315,0,0,0,2.707-3.544q-.52-.129-1.032-.248a19.355,19.355,0,0,1-2.379,3.092Z" fill="#ffbb4a"/>
      <path id="Trazado_876071" data-name="Trazado 876071" d="M55.251,34.228c-.793.438-.809,1.611-.967,2.43a19.683,19.683,0,0,1-.926,3.38,17.839,17.839,0,0,0-1.3,3.672C54.093,43.975,55,44,55,44c-.245.643-.518,1.269-.809,1.884a3.646,3.646,0,0,0,1.679-1.159,7.648,7.648,0,0,0,1.3-2.487,16.306,16.306,0,0,0,.82-3.99c.11-1.448-.6-5.205-2.739-4.02Z" fill="#f7f3eb"/>
      <path id="Trazado_876072" data-name="Trazado 876072" d="M50.984,43.035a32.134,32.134,0,0,0,.97-3.6,1.416,1.416,0,0,0-.051-.891c-.575-1.086-2.312-.3-3,.221a11.887,11.887,0,0,0-2.2,2.687,8.272,8.272,0,0,0-.743,1.259c1.976.375,3.591.641,4.882.83.043-.165.091-.326.142-.506Z" fill="#f7f3eb"/>
      <path id="Trazado_876073" data-name="Trazado 876073" d="M52.057,43.71a5.067,5.067,0,0,0-.056.618,1.91,1.91,0,0,0,.252,1.115A1.468,1.468,0,0,0,53.57,46a2.583,2.583,0,0,0,.621-.113c.291-.615.564-1.241.809-1.884,0,0-.907-.028-2.943-.293Z" fill="#ffebc2"/>
      <path id="Trazado_876074" data-name="Trazado 876074" d="M44.018,47.364a.51.51,0,0,0,0,.263.448.448,0,0,0,.221.225,2.118,2.118,0,0,0,1.814-.164,19.537,19.537,0,0,0,3.241-1.781,3.269,3.269,0,0,0,1.217-1.43,7.529,7.529,0,0,0,.327-.936c-1.291-.189-2.906-.455-4.882-.83-.421.843-.769,1.748-1.156,2.563a8.765,8.765,0,0,0-.782,2.09Z" fill="#ffebc2"/>
      <path id="Trazado_876075" data-name="Trazado 876075" d="M44.531,15.01a1,1,0,0,1-.791-.387c-2.8-3.61-3.528-7.036-1.85-8.727a3.545,3.545,0,0,1,.6-.455,1,1,0,1,1,1.026,1.717,1.532,1.532,0,0,0-.241.181c-.711.721-.165,3.206,2.048,6.057a1,1,0,0,1-.789,1.614Z" fill="#65adaf"/>
      <path id="Trazado_876076" data-name="Trazado 876076" d="M51.874,3.946l1.431-1.431C49.814-.084,46.535-.736,44.89.9c-1.553,1.566-1.058,4.62,1.292,7.968a.964.964,0,0,0,.439.335A1.008,1.008,0,0,0,47,9.29a.993.993,0,0,0,.573-.182A.982.982,0,0,0,47.9,7.915a.9.9,0,0,0-.087-.2C45.969,5.078,45.66,2.959,46.3,2.31c.713-.7,2.948-.246,5.574,1.636Z" fill="#79cfd1"/>
      <circle id="Elipse_11574" data-name="Elipse 11574" cx="1" cy="1" r="1" transform="translate(35 43)" fill="#ffedcf"/>
      <circle id="Elipse_11575" data-name="Elipse 11575" cx="1" cy="1" r="1" transform="translate(19 45)" fill="#ffedcf"/>
      <circle id="Elipse_11576" data-name="Elipse 11576" cx="1" cy="1" r="1" transform="translate(25 47)" fill="#ffbb4a"/>
      <circle id="Elipse_11577" data-name="Elipse 11577" cx="1" cy="1" r="1" transform="translate(34 49)" fill="#ffbb4a"/>
      <circle id="Elipse_11578" data-name="Elipse 11578" cx="1" cy="1" r="1" transform="translate(43 51)" fill="#ffedcf"/>
      <circle id="Elipse_11579" data-name="Elipse 11579" cx="1" cy="1" r="1" transform="translate(36 53)" fill="#ffbb4a"/>
      <circle id="Elipse_11580" data-name="Elipse 11580" cx="0.5" cy="0.5" r="0.5" transform="translate(33 48)" fill="#ffbb4a"/>
      <circle id="Elipse_11581" data-name="Elipse 11581" cx="0.5" cy="0.5" r="0.5" transform="translate(32 53)" fill="#ffbb4a"/>
      <circle id="Elipse_11582" data-name="Elipse 11582" cx="0.5" cy="0.5" r="0.5" transform="translate(40 44)" fill="#ffbb4a"/>
      <circle id="Elipse_11583" data-name="Elipse 11583" cx="0.5" cy="0.5" r="0.5" transform="translate(45 49)" fill="#ffedcf"/>
      <circle id="Elipse_11584" data-name="Elipse 11584" cx="0.5" cy="0.5" r="0.5" transform="translate(39.021 47)" fill="#ffbb4a"/>
      <circle id="Elipse_11585" data-name="Elipse 11585" cx="0.5" cy="0.5" r="0.5" transform="translate(29 47)" fill="#ffbb4a"/>
      <circle id="Elipse_11586" data-name="Elipse 11586" cx="0.5" cy="0.5" r="0.5" transform="translate(28 41)" fill="#ffedcf"/>
      <circle id="Elipse_11587" data-name="Elipse 11587" cx="0.5" cy="0.5" r="0.5" transform="translate(27 52)" fill="#ffedcf"/>
      <circle id="Elipse_11588" data-name="Elipse 11588" cx="0.5" cy="0.5" r="0.5" transform="translate(35 46)" fill="#ffbb4a"/>
      <circle id="Elipse_11589" data-name="Elipse 11589" cx="1.5" cy="1.5" r="1.5" transform="translate(21 49)" fill="#ffbb4a"/>
    </g>
  </g>
</svg>
