<svg xmlns="http://www.w3.org/2000/svg" width="89" height="89" viewBox="0 0 89 89">
  <g id="Grupo_1100624" data-name="Grupo 1100624" transform="translate(-1251.583 -413.337)">
    <g id="Grupo_1098742" data-name="Grupo 1098742" transform="translate(48.263 24.595)">
      <g id="Rect치ngulo_400898" data-name="Rect치ngulo 400898" transform="translate(1203.32 388.742)" fill="#fff" stroke="#fff" stroke-width="3" opacity="0.859">
        <rect width="89" height="89" rx="44.5" stroke="none"/>
        <rect x="1.5" y="1.5" width="86" height="86" rx="43" fill="none"/>
      </g>
      <rect id="Rect치ngulo_400907" data-name="Rect치ngulo 400907" width="89" height="89" rx="44.5" transform="translate(1203.32 388.742)" fill="#1d3fbb"/>
    </g>
    <g id="_x32_04" transform="translate(1265.083 426.13)">
      <g id="Grupo_1101004" data-name="Grupo 1101004" transform="translate(3.5 4.207)">
        <g id="Grupo_1100878" data-name="Grupo 1100878" transform="translate(15.428 36.555)">
          <g id="Grupo_1100877" data-name="Grupo 1100877">
            <g id="Grupo_1100876" data-name="Grupo 1100876">
              <g id="Grupo_1100875" data-name="Grupo 1100875">
                <path id="Trazado_876090" data-name="Trazado 876090" d="M41.811,42.891v3.191c0,1.84-1.211,3.68-3.634,5.09C30.414,55.693,16.706,52.517,16.747,46V42.833c0,.014,0,.028,0,.041-.019-1.864,1.171-3.736,3.631-5.166C28.143,33.187,41.852,36.375,41.811,42.891Z" transform="translate(-16.747 -35.592)" fill="#dedffb"/>
              </g>
            </g>
          </g>
        </g>
        <g id="Grupo_1100884" data-name="Grupo 1100884" transform="translate(15.424 36.545)">
          <g id="Grupo_1100883" data-name="Grupo 1100883">
            <g id="Grupo_1100880" data-name="Grupo 1100880" transform="translate(0 7.224)">
              <g id="Grupo_1100879" data-name="Grupo 1100879">
                <path id="Trazado_876091" data-name="Trazado 876091" d="M41.815,41.867v3.2c-.005,1.843-1.216,3.684-3.638,5.091-7.8,4.536-21.453,1.326-21.435-5.172v-3.2C16.724,48.3,30.358,51.5,38.177,46.958,40.6,45.551,41.81,43.711,41.815,41.867Z" transform="translate(-16.742 -41.786)" fill="#dedffb"/>
              </g>
            </g>
            <g id="Grupo_1100882" data-name="Grupo 1100882" transform="translate(0)">
              <g id="Grupo_1100881" data-name="Grupo 1100881">
                <path id="Trazado_876092" data-name="Trazado 876092" d="M38.109,37.714c4.912,2.836,4.949,7.43.069,10.266s-12.822,2.836-17.734,0-4.938-7.436-.058-10.272S33.2,34.878,38.109,37.714Z" transform="translate(-16.742 -35.584)" fill="#f3f1fc"/>
              </g>
            </g>
          </g>
        </g>
        <g id="Grupo_1100888" data-name="Grupo 1100888" transform="translate(21.202 22.031)">
          <g id="Grupo_1100887" data-name="Grupo 1100887" transform="translate(0)">
            <g id="Grupo_1100886" data-name="Grupo 1100886">
              <g id="Grupo_1100885" data-name="Grupo 1100885">
                <path id="Trazado_876093" data-name="Trazado 876093" d="M21.765,23.122,21.7,44.679c-.01,3.487,7.295,5.205,11.484,2.771a3.33,3.33,0,0,0,1.949-2.727l.061-21.6Z" transform="translate(-21.704 -23.122)" fill="#dedffb"/>
              </g>
            </g>
          </g>
        </g>
        <g id="Grupo_1100889" data-name="Grupo 1100889" transform="translate(0.021 15.709)">
          <path id="Trazado_876094" data-name="Trazado 876094" d="M59.4,17.694h0A27.291,27.291,0,0,1,32.106,44.985h-1.3A27.291,27.291,0,0,1,3.518,17.694H59.4Z" transform="translate(-3.518 -17.694)" fill="#e9e7fc"/>
        </g>
        <g id="Grupo_1100890" data-name="Grupo 1100890" transform="translate(3.129 23.06)">
          <path id="Trazado_876095" data-name="Trazado 876095" d="M6.186,24.006A25.324,25.324,0,0,0,30.369,41.95h1.3A25.324,25.324,0,0,0,55.85,24.006Z" transform="translate(-6.186 -24.006)" fill="#febc1f"/>
        </g>
        <g id="Grupo_1100891" data-name="Grupo 1100891" transform="translate(2.661 2.661)">
          <path id="Trazado_876096" data-name="Trazado 876096" d="M49.453,10.877C44.555,8.05,38,6.492,30.994,6.492S17.446,8.05,12.577,10.879c-4.385,2.548-6.8,5.779-6.792,9.1.005,3.351,2.465,6.615,6.925,9.19,4.9,2.828,11.45,4.385,18.451,4.385S44.694,32,49.555,29.173c4.4-2.556,6.818-5.794,6.814-9.116C56.364,16.709,53.908,13.45,49.453,10.877Z" transform="translate(-5.784 -6.492)" fill="#e9e7fc"/>
        </g>
        <g id="Grupo_1100892" data-name="Grupo 1100892" transform="translate(2.526 6.284)">
          <path id="Trazado_876097" data-name="Trazado 876097" d="M12.774,33.007c-4.577-2.641-7.1-6.035-7.106-9.556-.005-3.49,2.472-6.852,6.975-9.467C17.508,11.159,24.028,9.6,31,9.6s13.505,1.555,18.4,4.378c4.572,2.639,7.093,6.028,7.1,9.544.005,3.493-2.479,6.862-7,9.484-10.035,5.829-26.587,5.85-36.729,0Z" transform="translate(-5.669 -9.603)" fill="#ffd06c"/>
        </g>
        <g id="Grupo_1100893" data-name="Grupo 1100893" transform="translate(2.52 6.288)">
          <path id="Trazado_876098" data-name="Trazado 876098" d="M56.125,21.207A16.227,16.227,0,0,0,50.5,16.231c-4.9-2.82-11.428-4.377-18.4-4.377s-13.5,1.557-18.359,4.377C9.229,18.852,6.755,22.2,6.768,25.7a7.268,7.268,0,0,0,.373,2.315,8.258,8.258,0,0,1-1.477-4.563c0-3.5,2.475-6.851,6.984-9.472,4.856-2.82,11.375-4.377,18.359-4.377s13.5,1.557,18.4,4.377C52.958,16.032,55.273,18.546,56.125,21.207Z" transform="translate(-5.664 -9.606)" fill="#febc1f"/>
        </g>
        <g id="Grupo_1100895" data-name="Grupo 1100895">
          <g id="Grupo_1100894" data-name="Grupo 1100894">
            <path id="Trazado_876099" data-name="Trazado 876099" d="M51.159,8.95c-10.954-6.324-28.652-6.324-39.544.006C.743,15.274.8,25.525,11.754,31.849s28.642,6.318,39.514,0c10.892-6.33,10.844-16.576-.109-22.9Zm-1.228,20.6c-4.862,2.825-11.394,4.381-18.4,4.381s-13.554-1.557-18.451-4.385c-4.46-2.575-6.919-5.839-6.925-9.19-.005-3.319,2.407-6.551,6.792-9.1C17.822,8.427,24.362,6.868,31.37,6.868s13.561,1.558,18.459,4.385c4.455,2.572,6.912,5.832,6.917,9.179C56.75,23.755,54.331,26.993,49.932,29.549Z" transform="translate(-3.5 -4.207)" fill="#f3f1fc"/>
          </g>
        </g>
        <g id="Grupo_1100949" data-name="Grupo 1100949" transform="translate(8.026 10.531)">
          <g id="Grupo_1100906" data-name="Grupo 1100906" transform="translate(1.324 4.361)">
            <g id="Grupo_1100897" data-name="Grupo 1100897" transform="translate(0 1.567)">
              <g id="Grupo_1100896" data-name="Grupo 1100896">
                <path id="Trazado_876100" data-name="Trazado 876100" d="M14.874,18.57c.885.511.236,1.347-.957,1.347-.543,0-2.387-.31-2.389-.787,0-.427,1.65-.791,2.387-.791A1.951,1.951,0,0,1,14.874,18.57Z" transform="translate(-11.528 -18.339)" fill="#febc1f"/>
              </g>
            </g>
            <g id="Grupo_1100899" data-name="Grupo 1100899" transform="translate(3.75 8.26)">
              <g id="Grupo_1100898" data-name="Grupo 1100898">
                <path id="Trazado_876101" data-name="Trazado 876101" d="M17.683,24.345c.508.326.467.82-.095,1.113a4.234,4.234,0,0,1-2.667.355L14.9,25.8c-.493-.318.311-1.231.859-1.515A2.126,2.126,0,0,1,17.683,24.345Z" transform="translate(-14.748 -24.085)" fill="#febc1f"/>
              </g>
            </g>
            <g id="Grupo_1100901" data-name="Grupo 1100901" transform="translate(10.839 6.388)">
              <g id="Grupo_1100900" data-name="Grupo 1100900">
                <path id="Trazado_876102" data-name="Trazado 876102" d="M23.148,22.71c.522.3,1.271,1.226.738,1.536a4.158,4.158,0,0,1-2.654-.423.589.589,0,0,1-.006-1.113A2.1,2.1,0,0,1,23.148,22.71Z" transform="translate(-20.834 -22.478)" fill="#febc1f"/>
              </g>
            </g>
            <g id="Grupo_1100903" data-name="Grupo 1100903" transform="translate(5.422 4.153)">
              <g id="Grupo_1100902" data-name="Grupo 1100902">
                <path id="Trazado_876103" data-name="Trazado 876103" d="M18.5,20.791c.522.3,1.271,1.226.738,1.536a4.158,4.158,0,0,1-2.654-.423.589.589,0,0,1-.006-1.113A2.1,2.1,0,0,1,18.5,20.791Z" transform="translate(-16.183 -20.559)" fill="#febc1f"/>
              </g>
            </g>
            <g id="Grupo_1100905" data-name="Grupo 1100905" transform="translate(6.714)">
              <g id="Grupo_1100904" data-name="Grupo 1100904">
                <path id="Trazado_876104" data-name="Trazado 876104" d="M20.35,17.1c.522.3-.2,1.235-.721,1.536a2.145,2.145,0,0,1-1.929,0c-.544-.314-.539-.812-.006-1.122A4.055,4.055,0,0,1,20.35,17.1Z" transform="translate(-17.292 -16.993)" fill="#febc1f"/>
              </g>
            </g>
          </g>
          <g id="Grupo_1100921" data-name="Grupo 1100921" transform="translate(9.631)">
            <g id="Grupo_1100908" data-name="Grupo 1100908" transform="translate(3.886 5.031)">
              <g id="Grupo_1100907" data-name="Grupo 1100907">
                <path id="Trazado_876105" data-name="Trazado 876105" d="M25.336,17.8a.691.691,0,0,1,.4.556c0,.444-.6.791-1.361.791a5.493,5.493,0,0,1-2.129-.486c-1.016-.587,1.291-1.092,2.127-1.092A1.951,1.951,0,0,1,25.336,17.8Z" transform="translate(-21.996 -17.568)" fill="#febc1f"/>
              </g>
            </g>
            <g id="Grupo_1100910" data-name="Grupo 1100910" transform="translate(7.63 11.724)">
              <g id="Grupo_1100909" data-name="Grupo 1100909">
                <path id="Trazado_876106" data-name="Trazado 876106" d="M28.146,23.574c.508.326.467.82-.095,1.113a4.234,4.234,0,0,1-2.667.355l-.019-.012c-.493-.318.311-1.231.859-1.515A2.126,2.126,0,0,1,28.146,23.574Z" transform="translate(-25.211 -23.315)" fill="#febc1f"/>
              </g>
            </g>
            <g id="Grupo_1100912" data-name="Grupo 1100912" transform="translate(0 14.158)">
              <g id="Grupo_1100911" data-name="Grupo 1100911">
                <path id="Trazado_876107" data-name="Trazado 876107" d="M21.595,25.665c.508.326.467.82-.095,1.113a4.234,4.234,0,0,1-2.667.355l-.019-.012c-.493-.318.311-1.231.859-1.515A2.126,2.126,0,0,1,21.595,25.665Z" transform="translate(-18.66 -25.405)" fill="#febc1f"/>
              </g>
            </g>
            <g id="Grupo_1100914" data-name="Grupo 1100914" transform="translate(14.718 9.852)">
              <g id="Grupo_1100913" data-name="Grupo 1100913">
                <path id="Trazado_876108" data-name="Trazado 876108" d="M33.611,21.94c.522.3,1.271,1.226.738,1.536a4.158,4.158,0,0,1-2.654-.423.589.589,0,0,1-.006-1.113A2.1,2.1,0,0,1,33.611,21.94Z" transform="translate(-31.297 -21.707)" fill="#febc1f"/>
              </g>
            </g>
            <g id="Grupo_1100916" data-name="Grupo 1100916" transform="translate(13.1)">
              <g id="Grupo_1100915" data-name="Grupo 1100915">
                <path id="Trazado_876109" data-name="Trazado 876109" d="M32.222,13.481c.522.3,1.271,1.226.738,1.536a4.158,4.158,0,0,1-2.654-.423.589.589,0,0,1-.006-1.113A2.1,2.1,0,0,1,32.222,13.481Z" transform="translate(-29.907 -13.249)" fill="#febc1f"/>
              </g>
            </g>
            <g id="Grupo_1100918" data-name="Grupo 1100918" transform="translate(9.302 7.617)">
              <g id="Grupo_1100917" data-name="Grupo 1100917">
                <path id="Trazado_876110" data-name="Trazado 876110" d="M28.961,20.021c.522.3,1.271,1.226.738,1.536a4.158,4.158,0,0,1-2.654-.423.589.589,0,0,1-.006-1.113A2.1,2.1,0,0,1,28.961,20.021Z" transform="translate(-26.646 -19.788)" fill="#febc1f"/>
              </g>
            </g>
            <g id="Grupo_1100920" data-name="Grupo 1100920" transform="translate(10.593 3.464)">
              <g id="Grupo_1100919" data-name="Grupo 1100919">
                <path id="Trazado_876111" data-name="Trazado 876111" d="M30.813,16.332c.522.3-.2,1.235-.721,1.536a2.145,2.145,0,0,1-1.929,0c-.544-.314-.539-.812-.006-1.122A4.055,4.055,0,0,1,30.813,16.332Z" transform="translate(-27.755 -16.222)" fill="#febc1f"/>
              </g>
            </g>
          </g>
          <g id="Grupo_1100948" data-name="Grupo 1100948" transform="translate(0 0.936)">
            <g id="Grupo_1100923" data-name="Grupo 1100923" transform="translate(25.703 3.197)">
              <g id="Grupo_1100922" data-name="Grupo 1100922">
                <path id="Trazado_876112" data-name="Trazado 876112" d="M36.2,17.584c0,.444-.6.791-1.361.791a5.493,5.493,0,0,1-2.129-.486C31.7,17.3,34,16.8,34.84,16.8,35.214,16.8,36.2,17.05,36.2,17.584Z" transform="translate(-32.459 -16.797)" fill="#febc1f"/>
              </g>
            </g>
            <g id="Grupo_1100925" data-name="Grupo 1100925" transform="translate(0 9.063)">
              <g id="Grupo_1100924" data-name="Grupo 1100924">
                <path id="Trazado_876113" data-name="Trazado 876113" d="M14.135,22.62c0,.444-.6.791-1.361.791a5.493,5.493,0,0,1-2.129-.486c-1.016-.587,1.291-1.092,2.127-1.092C13.146,21.834,14.132,22.086,14.135,22.62Z" transform="translate(-10.391 -21.834)" fill="#febc1f"/>
              </g>
            </g>
            <g id="Grupo_1100927" data-name="Grupo 1100927" transform="translate(36.535 4.884)">
              <g id="Grupo_1100926" data-name="Grupo 1100926">
                <path id="Trazado_876114" data-name="Trazado 876114" d="M45.106,18.477a.691.691,0,0,1,.4.556c0,.444-.6.791-1.361.791a5.492,5.492,0,0,1-2.129-.486c-.16-.093-.26-.194-.26-.3,0-.427,1.65-.791,2.387-.791A1.951,1.951,0,0,1,45.106,18.477Z" transform="translate(-41.76 -18.245)" fill="#febc1f"/>
              </g>
            </g>
            <g id="Grupo_1100929" data-name="Grupo 1100929" transform="translate(29.447 9.89)">
              <g id="Grupo_1100928" data-name="Grupo 1100928">
                <path id="Trazado_876115" data-name="Trazado 876115" d="M38.609,22.8c.508.326.467.82-.095,1.113a4.234,4.234,0,0,1-2.667.355l-.019-.012c-.493-.318.311-1.231.859-1.515A2.126,2.126,0,0,1,38.609,22.8Z" transform="translate(-35.674 -22.544)" fill="#febc1f"/>
              </g>
            </g>
            <g id="Grupo_1100931" data-name="Grupo 1100931" transform="translate(28.835 13.792)">
              <g id="Grupo_1100930" data-name="Grupo 1100930">
                <path id="Trazado_876116" data-name="Trazado 876116" d="M38.032,26.123l.051.031c.508.326.467.82-.095,1.113a4.234,4.234,0,0,1-2.667.355L35.3,27.61c-.493-.318.311-1.231.859-1.515A2.146,2.146,0,0,1,38.032,26.123Z" transform="translate(-35.148 -25.894)" fill="#febc1f"/>
              </g>
            </g>
            <g id="Grupo_1100933" data-name="Grupo 1100933" transform="translate(22.169 13.527)">
              <g id="Grupo_1100932" data-name="Grupo 1100932">
                <path id="Trazado_876117" data-name="Trazado 876117" d="M32.36,25.926c.508.326.467.82-.095,1.113a4.234,4.234,0,0,1-2.667.355l-.019-.012c-.493-.318.311-1.231.859-1.515A2.126,2.126,0,0,1,32.36,25.926Z" transform="translate(-29.425 -25.667)" fill="#febc1f"/>
              </g>
            </g>
            <g id="Grupo_1100935" data-name="Grupo 1100935" transform="translate(15.966 15.064)">
              <g id="Grupo_1100934" data-name="Grupo 1100934">
                <path id="Trazado_876118" data-name="Trazado 876118" d="M27.034,27.246c.508.326.467.82-.095,1.113a4.234,4.234,0,0,1-2.667.355l-.019-.012c-.493-.318.311-1.231.859-1.515A2.126,2.126,0,0,1,27.034,27.246Z" transform="translate(-24.1 -26.986)" fill="#febc1f"/>
              </g>
            </g>
            <g id="Grupo_1100937" data-name="Grupo 1100937" transform="translate(36.535 8.018)">
              <g id="Grupo_1100936" data-name="Grupo 1100936">
                <path id="Trazado_876119" data-name="Trazado 876119" d="M44.074,21.169c.522.3,1.271,1.226.738,1.536a4.158,4.158,0,0,1-2.654-.423.589.589,0,0,1-.006-1.113A2.1,2.1,0,0,1,44.074,21.169Z" transform="translate(-41.76 -20.937)" fill="#febc1f"/>
              </g>
            </g>
            <g id="Grupo_1100939" data-name="Grupo 1100939" transform="translate(34.03 11.92)">
              <g id="Grupo_1100938" data-name="Grupo 1100938">
                <path id="Trazado_876120" data-name="Trazado 876120" d="M41.924,24.519c.522.3,1.271,1.226.738,1.536a4.158,4.158,0,0,1-2.654-.423A.589.589,0,0,1,40,24.519,2.1,2.1,0,0,1,41.924,24.519Z" transform="translate(-39.609 -24.287)" fill="#febc1f"/>
              </g>
            </g>
            <g id="Grupo_1100941" data-name="Grupo 1100941" transform="translate(14.375)">
              <g id="Grupo_1100940" data-name="Grupo 1100940">
                <path id="Trazado_876121" data-name="Trazado 876121" d="M25.048,14.285c.522.3,1.271,1.226.738,1.536a4.158,4.158,0,0,1-2.654-.423.589.589,0,0,1-.006-1.113A2.1,2.1,0,0,1,25.048,14.285Z" transform="translate(-22.734 -14.052)" fill="#febc1f"/>
              </g>
            </g>
            <g id="Grupo_1100943" data-name="Grupo 1100943" transform="translate(5.373 1.285)">
              <g id="Grupo_1100942" data-name="Grupo 1100942">
                <path id="Trazado_876122" data-name="Trazado 876122" d="M15.766,15.348c-.431.249-1.051,1.014-.61,1.27a3.436,3.436,0,0,0,2.194-.349.487.487,0,0,0,.005-.92A1.739,1.739,0,0,0,15.766,15.348Z" transform="translate(-15.005 -15.156)" fill="#febc1f"/>
              </g>
            </g>
            <g id="Grupo_1100945" data-name="Grupo 1100945" transform="translate(31.119 5.783)">
              <g id="Grupo_1100944" data-name="Grupo 1100944">
                <path id="Trazado_876123" data-name="Trazado 876123" d="M39.424,19.25c.522.3,1.271,1.226.738,1.536a4.158,4.158,0,0,1-2.654-.423A.589.589,0,0,1,37.5,19.25,2.1,2.1,0,0,1,39.424,19.25Z" transform="translate(-37.109 -19.018)" fill="#febc1f"/>
              </g>
            </g>
            <g id="Grupo_1100947" data-name="Grupo 1100947" transform="translate(32.41 1.63)">
              <g id="Grupo_1100946" data-name="Grupo 1100946">
                <path id="Trazado_876124" data-name="Trazado 876124" d="M41.276,15.561c.522.3-.2,1.235-.721,1.536a2.145,2.145,0,0,1-1.929,0c-.544-.314-.539-.812-.006-1.122A4.055,4.055,0,0,1,41.276,15.561Z" transform="translate(-38.218 -15.452)" fill="#febc1f"/>
              </g>
            </g>
          </g>
        </g>
        <g id="Grupo_1101003" data-name="Grupo 1101003" transform="translate(7.609 10.078)">
          <g id="Grupo_1100960" data-name="Grupo 1100960" transform="translate(1.33 4.361)">
            <g id="Grupo_1100951" data-name="Grupo 1100951" transform="translate(0 1.567)">
              <g id="Grupo_1100950" data-name="Grupo 1100950">
                <path id="Trazado_876125" data-name="Trazado 876125" d="M14.925,18.737c0,.444-.6.791-1.361.791-.543,0-2.387-.31-2.389-.787,0-.427,1.65-.791,2.387-.791C14.107,17.95,14.922,18.2,14.925,18.737Z" transform="translate(-11.175 -17.95)" fill="#aa6256"/>
              </g>
            </g>
            <g id="Grupo_1100953" data-name="Grupo 1100953" transform="translate(3.75 8.26)">
              <g id="Grupo_1100952" data-name="Grupo 1100952">
                <path id="Trazado_876126" data-name="Trazado 876126" d="M17.33,23.957c.508.326.467.82-.095,1.113a4.234,4.234,0,0,1-2.667.355l-.019-.012c-.493-.318.311-1.231.859-1.515A2.126,2.126,0,0,1,17.33,23.957Z" transform="translate(-14.395 -23.697)" fill="#aa6256"/>
              </g>
            </g>
            <g id="Grupo_1100955" data-name="Grupo 1100955" transform="translate(10.839 6.388)">
              <g id="Grupo_1100954" data-name="Grupo 1100954">
                <path id="Trazado_876127" data-name="Trazado 876127" d="M22.8,22.322c.522.3,1.271,1.226.738,1.536a4.158,4.158,0,0,1-2.654-.423.589.589,0,0,1-.006-1.113A2.1,2.1,0,0,1,22.8,22.322Z" transform="translate(-20.481 -22.09)" fill="#aa6256"/>
              </g>
            </g>
            <g id="Grupo_1100957" data-name="Grupo 1100957" transform="translate(5.422 4.153)">
              <g id="Grupo_1100956" data-name="Grupo 1100956">
                <path id="Trazado_876128" data-name="Trazado 876128" d="M18.145,20.4c.522.3,1.271,1.226.738,1.536a4.158,4.158,0,0,1-2.654-.423.589.589,0,0,1-.006-1.113A2.1,2.1,0,0,1,18.145,20.4Z" transform="translate(-15.83 -20.171)" fill="#aa6256"/>
              </g>
            </g>
            <g id="Grupo_1100959" data-name="Grupo 1100959" transform="translate(6.714)">
              <g id="Grupo_1100958" data-name="Grupo 1100958">
                <path id="Trazado_876129" data-name="Trazado 876129" d="M20,16.714c.522.3-.2,1.235-.721,1.536a2.145,2.145,0,0,1-1.929,0c-.544-.314-.539-.812-.006-1.122A4.055,4.055,0,0,1,20,16.714Z" transform="translate(-16.939 -16.605)" fill="#aa6256"/>
              </g>
            </g>
          </g>
          <g id="Grupo_1100975" data-name="Grupo 1100975" transform="translate(9.637)">
            <g id="Grupo_1100962" data-name="Grupo 1100962" transform="translate(3.879 5.031)">
              <g id="Grupo_1100961" data-name="Grupo 1100961">
                <path id="Trazado_876130" data-name="Trazado 876130" d="M24.984,17.411a.691.691,0,0,1,.4.556c0,.444-.6.791-1.361.791-.543,0-2.387-.31-2.389-.787,0-.427,1.65-.791,2.387-.791A1.951,1.951,0,0,1,24.984,17.411Z" transform="translate(-21.638 -17.18)" fill="#aa6256"/>
              </g>
            </g>
            <g id="Grupo_1100964" data-name="Grupo 1100964" transform="translate(7.63 11.724)">
              <g id="Grupo_1100963" data-name="Grupo 1100963">
                <path id="Trazado_876131" data-name="Trazado 876131" d="M27.793,23.186c.508.326.467.82-.095,1.113a4.234,4.234,0,0,1-2.667.355l-.019-.012c-.493-.318.311-1.231.859-1.515A2.126,2.126,0,0,1,27.793,23.186Z" transform="translate(-24.858 -22.926)" fill="#aa6256"/>
              </g>
            </g>
            <g id="Grupo_1100966" data-name="Grupo 1100966" transform="translate(0 14.158)">
              <g id="Grupo_1100965" data-name="Grupo 1100965">
                <path id="Trazado_876132" data-name="Trazado 876132" d="M21.242,25.276c.508.326.467.82-.095,1.113a4.234,4.234,0,0,1-2.667.355l-.019-.012c-.493-.318.311-1.231.859-1.515A2.126,2.126,0,0,1,21.242,25.276Z" transform="translate(-18.307 -25.016)" fill="#aa6256"/>
              </g>
            </g>
            <g id="Grupo_1100968" data-name="Grupo 1100968" transform="translate(14.718 9.852)">
              <g id="Grupo_1100967" data-name="Grupo 1100967">
                <path id="Trazado_876133" data-name="Trazado 876133" d="M33.258,21.551c.522.3,1.271,1.226.738,1.536a4.158,4.158,0,0,1-2.654-.423.589.589,0,0,1-.006-1.113A2.1,2.1,0,0,1,33.258,21.551Z" transform="translate(-30.944 -21.319)" fill="#aa6256"/>
              </g>
            </g>
            <g id="Grupo_1100970" data-name="Grupo 1100970" transform="translate(13.1)">
              <g id="Grupo_1100969" data-name="Grupo 1100969">
                <path id="Trazado_876134" data-name="Trazado 876134" d="M31.869,13.093c.522.3,1.271,1.226.738,1.536a4.158,4.158,0,0,1-2.654-.423.589.589,0,0,1-.006-1.113A2.1,2.1,0,0,1,31.869,13.093Z" transform="translate(-29.555 -12.86)" fill="#aa6256"/>
              </g>
            </g>
            <g id="Grupo_1100972" data-name="Grupo 1100972" transform="translate(9.302 7.617)">
              <g id="Grupo_1100971" data-name="Grupo 1100971">
                <path id="Trazado_876135" data-name="Trazado 876135" d="M28.608,19.632c.522.3,1.271,1.226.738,1.536a4.158,4.158,0,0,1-2.654-.423.589.589,0,0,1-.006-1.113A2.1,2.1,0,0,1,28.608,19.632Z" transform="translate(-26.293 -19.4)" fill="#aa6256"/>
              </g>
            </g>
            <g id="Grupo_1100974" data-name="Grupo 1100974" transform="translate(10.593 3.464)">
              <g id="Grupo_1100973" data-name="Grupo 1100973">
                <path id="Trazado_876136" data-name="Trazado 876136" d="M30.46,15.943c.522.3-.2,1.235-.721,1.536a2.145,2.145,0,0,1-1.929,0c-.544-.314-.539-.812-.006-1.122A4.055,4.055,0,0,1,30.46,15.943Z" transform="translate(-27.402 -15.834)" fill="#aa6256"/>
              </g>
            </g>
          </g>
          <g id="Grupo_1101002" data-name="Grupo 1101002" transform="translate(0 0.936)">
            <g id="Grupo_1100977" data-name="Grupo 1100977" transform="translate(25.703 3.197)">
              <g id="Grupo_1100976" data-name="Grupo 1100976">
                <path id="Trazado_876137" data-name="Trazado 876137" d="M35.851,17.2c0,.444-.6.791-1.361.791-.543,0-2.387-.31-2.389-.787,0-.427,1.65-.791,2.387-.791C35.033,16.409,35.848,16.662,35.851,17.2Z" transform="translate(-32.101 -16.409)" fill="#aa6256"/>
              </g>
            </g>
            <g id="Grupo_1100979" data-name="Grupo 1100979" transform="translate(0 9.063)">
              <g id="Grupo_1100978" data-name="Grupo 1100978">
                <path id="Trazado_876138" data-name="Trazado 876138" d="M13.783,22.232c0,.444-.6.791-1.361.791-.543,0-2.387-.31-2.389-.787,0-.427,1.65-.791,2.387-.791C12.965,21.445,13.78,21.7,13.783,22.232Z" transform="translate(-10.033 -21.445)" fill="#aa6256"/>
              </g>
            </g>
            <g id="Grupo_1100981" data-name="Grupo 1100981" transform="translate(36.542 4.884)">
              <g id="Grupo_1100980" data-name="Grupo 1100980">
                <path id="Trazado_876139" data-name="Trazado 876139" d="M44.753,18.088a.691.691,0,0,1,.4.556c0,.444-.6.791-1.361.791a5.492,5.492,0,0,1-2.129-.486c-.16-.093-.26-.194-.26-.3,0-.427,1.65-.791,2.387-.791A1.951,1.951,0,0,1,44.753,18.088Z" transform="translate(-41.407 -17.857)" fill="#aa6256"/>
              </g>
            </g>
            <g id="Grupo_1100983" data-name="Grupo 1100983" transform="translate(29.453 9.89)">
              <g id="Grupo_1100982" data-name="Grupo 1100982">
                <path id="Trazado_876140" data-name="Trazado 876140" d="M38.256,22.415c.508.326.467.82-.095,1.113a4.234,4.234,0,0,1-2.667.355l-.019-.012c-.493-.318.311-1.231.859-1.515A2.126,2.126,0,0,1,38.256,22.415Z" transform="translate(-35.321 -22.155)" fill="#aa6256"/>
              </g>
            </g>
            <g id="Grupo_1100985" data-name="Grupo 1100985" transform="translate(28.841 13.792)">
              <g id="Grupo_1100984" data-name="Grupo 1100984">
                <path id="Trazado_876141" data-name="Trazado 876141" d="M37.679,25.734l.051.031c.508.326.467.82-.095,1.113a4.234,4.234,0,0,1-2.667.355l-.019-.012c-.493-.318.311-1.231.859-1.515A2.146,2.146,0,0,1,37.679,25.734Z" transform="translate(-34.795 -25.506)" fill="#aa6256"/>
              </g>
            </g>
            <g id="Grupo_1100987" data-name="Grupo 1100987" transform="translate(22.175 13.527)">
              <g id="Grupo_1100986" data-name="Grupo 1100986">
                <path id="Trazado_876142" data-name="Trazado 876142" d="M32.007,25.538c.508.326.467.82-.095,1.113a4.234,4.234,0,0,1-2.667.355l-.019-.012c-.493-.318.311-1.231.859-1.515A2.126,2.126,0,0,1,32.007,25.538Z" transform="translate(-29.072 -25.278)" fill="#aa6256"/>
              </g>
            </g>
            <g id="Grupo_1100989" data-name="Grupo 1100989" transform="translate(15.973 15.064)">
              <g id="Grupo_1100988" data-name="Grupo 1100988">
                <path id="Trazado_876143" data-name="Trazado 876143" d="M26.682,26.858c.508.326.467.82-.095,1.113a4.234,4.234,0,0,1-2.667.355l-.019-.012c-.493-.318.311-1.231.859-1.515A2.126,2.126,0,0,1,26.682,26.858Z" transform="translate(-23.747 -26.598)" fill="#aa6256"/>
              </g>
            </g>
            <g id="Grupo_1100991" data-name="Grupo 1100991" transform="translate(36.542 8.018)">
              <g id="Grupo_1100990" data-name="Grupo 1100990">
                <path id="Trazado_876144" data-name="Trazado 876144" d="M43.721,20.78c.522.3,1.271,1.226.738,1.536a4.158,4.158,0,0,1-2.654-.423A.589.589,0,0,1,41.8,20.78,2.1,2.1,0,0,1,43.721,20.78Z" transform="translate(-41.407 -20.548)" fill="#aa6256"/>
              </g>
            </g>
            <g id="Grupo_1100993" data-name="Grupo 1100993" transform="translate(34.037 11.92)">
              <g id="Grupo_1100992" data-name="Grupo 1100992">
                <path id="Trazado_876145" data-name="Trazado 876145" d="M41.571,24.131c.522.3,1.271,1.226.738,1.536a4.158,4.158,0,0,1-2.654-.423.589.589,0,0,1-.006-1.113A2.1,2.1,0,0,1,41.571,24.131Z" transform="translate(-39.256 -23.898)" fill="#aa6256"/>
              </g>
            </g>
            <g id="Grupo_1100995" data-name="Grupo 1100995" transform="translate(14.382)">
              <g id="Grupo_1100994" data-name="Grupo 1100994">
                <path id="Trazado_876146" data-name="Trazado 876146" d="M24.7,13.9c.522.3,1.271,1.226.738,1.536a4.158,4.158,0,0,1-2.654-.423.589.589,0,0,1-.006-1.113A2.1,2.1,0,0,1,24.7,13.9Z" transform="translate(-22.381 -13.664)" fill="#aa6256"/>
              </g>
            </g>
            <g id="Grupo_1100997" data-name="Grupo 1100997" transform="translate(5.451 1.364)">
              <g id="Grupo_1100996" data-name="Grupo 1100996">
                <path id="Trazado_876147" data-name="Trazado 876147" d="M15.475,15.027c-.431.249-1.051,1.014-.61,1.269a3.436,3.436,0,0,0,2.194-.349.487.487,0,0,0,.005-.92A1.739,1.739,0,0,0,15.475,15.027Z" transform="translate(-14.713 -14.835)" fill="#aa6256"/>
              </g>
            </g>
            <g id="Grupo_1100999" data-name="Grupo 1100999" transform="translate(31.125 5.783)">
              <g id="Grupo_1100998" data-name="Grupo 1100998">
                <path id="Trazado_876148" data-name="Trazado 876148" d="M39.071,18.861c.522.3,1.271,1.226.738,1.536a4.158,4.158,0,0,1-2.654-.423.589.589,0,0,1-.006-1.113A2.1,2.1,0,0,1,39.071,18.861Z" transform="translate(-36.756 -18.629)" fill="#aa6256"/>
              </g>
            </g>
            <g id="Grupo_1101001" data-name="Grupo 1101001" transform="translate(32.417 1.63)">
              <g id="Grupo_1101000" data-name="Grupo 1101000">
                <path id="Trazado_876149" data-name="Trazado 876149" d="M40.923,15.173c.522.3-.2,1.235-.721,1.536a2.145,2.145,0,0,1-1.929,0c-.544-.314-.539-.812-.006-1.122A4.055,4.055,0,0,1,40.923,15.173Z" transform="translate(-37.865 -15.063)" fill="#aa6256"/>
              </g>
            </g>
          </g>
        </g>
      </g>
      <g id="Grupo_1101005" data-name="Grupo 1101005" transform="translate(15.599 35.699)">
        <path id="Trazado_876150" data-name="Trazado 876150" d="M19.035,33.819a2.572,2.572,0,0,0-2.574,2.574,2.572,2.572,0,0,0-2.574-2.574,2.572,2.572,0,0,0,2.574-2.574,2.569,2.569,0,0,0,2.574,2.574Z" transform="translate(-13.888 -31.246)" fill="#fff"/>
      </g>
    </g>
  </g>
</svg>
